<svg width="10" height="16" viewBox="0 0 10 16" fill="none" xmlns="http://www.w3.org/2000/svg">
<path fill-rule="evenodd" clip-rule="evenodd" d="M3.81266 1.27202C4.59103 0.457558 5.64673 0 6.74751 0H8.84452C9.20653 0 9.49999 0.307073 9.49999 0.685867V3.61152C9.49999 3.99031 9.20653 4.29739 8.84452 4.29739H6.74751C6.73596 4.29739 6.72489 4.30219 6.71673 4.31073C6.70856 4.31927 6.70398 4.33085 6.70398 4.34293V5.85131H8.84452C9.04636 5.85131 9.23695 5.94861 9.36117 6.11508C9.48538 6.28155 9.52938 6.49862 9.48042 6.70352L8.78142 9.62917C8.70847 9.9345 8.44629 10.1487 8.14551 10.1487H6.70398V15.3141C6.70398 15.6929 6.41051 16 6.0485 16H3.25249C2.89048 16 2.59701 15.6929 2.59701 15.3141V10.1487H1.15548C0.793467 10.1487 0.5 9.84162 0.5 9.46283V6.53717C0.5 6.15838 0.793467 5.85131 1.15548 5.85131H2.59701V4.34293C2.59701 3.19112 3.03429 2.08647 3.81266 1.27202ZM6.74751 1.37173C5.99441 1.37173 5.27216 1.68477 4.73965 2.24198C4.20713 2.79919 3.90796 3.55492 3.90796 4.34293V6.53717C3.90796 6.91597 3.6145 7.22304 3.25249 7.22304H1.81095V8.77696H3.25249C3.6145 8.77696 3.90796 9.08403 3.90796 9.46283V14.6283H5.39303V9.46283C5.39303 9.08403 5.68649 8.77696 6.0485 8.77696H7.63373L8.005 7.22304H6.0485C5.68649 7.22304 5.39303 6.91597 5.39303 6.53717V4.34293C5.39303 3.96705 5.53573 3.60656 5.78974 3.34076C6.04376 3.07497 6.38828 2.92565 6.74751 2.92565H8.18904V1.37173H6.74751Z" fill="white"/>
</svg>
