<svg width="22" height="20" viewBox="0 0 22 20" fill="none" xmlns="http://www.w3.org/2000/svg">
<path d="M0.199951 20H4.19995V9H0.199951V20ZM13.2 20L21.2 17V15H12.2L10.1 14.25L10.45 13.325L12.2 14H16.2V12L8.17495 9H6.19995V18.025L13.2 20ZM15.2 11L11.05 6.95C10.5333 6.45 10.0958 5.89583 9.73745 5.2875C9.37912 4.67917 9.19995 4.01667 9.19995 3.3C9.19995 2.38333 9.52079 1.60417 10.1625 0.9625C10.8041 0.320833 11.5833 0 12.5 0C13.0333 0 13.5333 0.1125 14 0.3375C14.4666 0.5625 14.8666 0.866667 15.2 1.25C15.5333 0.866667 15.9333 0.5625 16.4 0.3375C16.8666 0.1125 17.3666 0 17.9 0C18.8166 0 19.5958 0.320833 20.2375 0.9625C20.8791 1.60417 21.2 2.38333 21.2 3.3C21.2 4.01667 21.025 4.67917 20.675 5.2875C20.325 5.89583 19.8916 6.45 19.375 6.95L15.2 11Z" fill="#EFE1E1"/>
</svg>
