<svg width="16" height="16" viewBox="0 0 16 16" fill="none" xmlns="http://www.w3.org/2000/svg">
<path fill-rule="evenodd" clip-rule="evenodd" d="M6.36879 4.76218C7.04306 4.41232 7.81049 4.28397 8.5619 4.3954C9.32838 4.50906 10.038 4.86622 10.5859 5.41412C11.1338 5.96203 11.491 6.67163 11.6046 7.4381C11.716 8.18952 11.5877 8.95694 11.2378 9.63121C10.888 10.3055 10.3344 10.8523 9.65586 11.1938C8.97733 11.5353 8.20838 11.6542 7.45839 11.5335C6.7084 11.4128 6.01557 11.0587 5.47842 10.5216C4.94128 9.98444 4.58718 9.2916 4.4665 8.54162C4.34582 7.79163 4.46469 7.02268 4.80622 6.34415C5.14774 5.66562 5.69453 5.11205 6.36879 4.76218ZM8.36069 5.75229C7.89468 5.68319 7.41874 5.76279 7.00058 5.97977C6.58241 6.19675 6.24331 6.54006 6.0315 6.96087C5.81969 7.38168 5.74597 7.85856 5.82081 8.32369C5.89566 8.78881 6.11526 9.2185 6.44839 9.55162C6.78151 9.88475 7.21119 10.1043 7.67632 10.1792C8.14145 10.254 8.61833 10.1803 9.03914 9.96851C9.45995 9.7567 9.80326 9.4176 10.0202 8.99943C10.2372 8.58126 10.3168 8.10533 10.2477 7.63931C10.1772 7.16396 9.95572 6.72389 9.61592 6.38409C9.27612 6.04429 8.83605 5.82278 8.36069 5.75229Z" fill="white"/>
<path d="M12.0228 3.2927C11.644 3.2927 11.3369 3.59977 11.3369 3.97857C11.3369 4.35736 11.644 4.66443 12.0228 4.66443H12.0313C12.4101 4.66443 12.7171 4.35736 12.7171 3.97857C12.7171 3.59977 12.4101 3.2927 12.0313 3.2927H12.0228Z" fill="white"/>
<path fill-rule="evenodd" clip-rule="evenodd" d="M0 4.34293C0 1.9444 1.9444 0 4.34293 0H11.6571C14.0556 0 16 1.9444 16 4.34293V11.6571C16 14.0556 14.0556 16 11.6571 16H4.34293C1.9444 16 0 14.0556 0 11.6571V4.34293ZM4.34293 1.37173C2.70199 1.37173 1.37173 2.70199 1.37173 4.34293V11.6571C1.37173 13.298 2.70199 14.6283 4.34293 14.6283H11.6571C13.298 14.6283 14.6283 13.298 14.6283 11.6571V4.34293C14.6283 2.70199 13.298 1.37173 11.6571 1.37173H4.34293Z" fill="white"/>
</svg>
